<svg xmlns="http://www.w3.org/2000/svg" viewBox="0 0 192 192">
  <defs><linearGradient id="g" x1="0" y1="0" x2="1" y2="1"><stop stop-color="#39e7ff"/><stop offset=".55" stop-color="#7768ff"/><stop offset="1" stop-color="#d66cff"/></linearGradient><filter id="b"><feGaussianBlur stdDeviation="4" result="x"/><feMerge><feMergeNode in="x"/><feMergeNode in="SourceGraphic"/></feMerge></filter></defs>
  <rect width="192" height="192" rx="42" fill="#040817"/>
  <circle cx="96" cy="96" r="72" fill="none" stroke="url(#g)" stroke-width="6" stroke-dasharray="25 12" filter="url(#b)"/>
  <path d="M63 123c-3-17-2-31 1-42 2-6 9-6 12 0l2 17V59c0-8 11-9 13 0l1 34 4-42c1-8 12-8 13 0l1 42 5-34c2-8 13-6 13 2v38l7-17c3-8 14-4 12 5l-8 35c-4 17-16 29-34 31-22 2-38-8-42-30Z" fill="#071126" stroke="#efffff" stroke-width="5" stroke-linejoin="round" filter="url(#b)"/>
  <path d="M72 115c17-10 37-12 60-3" fill="none" stroke="#39e7ff" stroke-width="4" stroke-linecap="round"/>
</svg>
